<svg width="22" height="18" viewBox="0 0 22 18" fill="none" xmlns="http://www.w3.org/2000/svg">
<path d="M1.49285 7.74903C7.3241 5.20903 11.2116 3.53444 13.1554 2.72528C18.7116 0.414962 19.8647 0.0137122 20.6178 0.000118445C20.7835 -0.00253781 21.1522 0.0383994 21.3929 0.232931C21.5929 0.396993 21.6491 0.618869 21.6772 0.77465C21.7022 0.930275 21.7366 1.28496 21.7085 1.56184C21.4085 4.72434 20.1054 12.3987 19.4429 15.9409C19.1647 17.4397 18.6116 17.9422 18.0772 17.9912C16.9147 18.0981 16.0335 17.2237 14.9085 16.4865C13.1491 15.3325 12.1554 14.6143 10.446 13.4884C8.47098 12.1872 9.75223 11.4718 10.8772 10.3031C11.171 9.99715 16.2897 5.34246 16.3866 4.92027C16.3991 4.86746 16.4116 4.67059 16.2929 4.56684C16.1772 4.46277 16.0054 4.4984 15.8804 4.52653C15.7022 4.56653 12.8929 6.42528 7.44285 10.1025C6.64598 10.6506 5.9241 10.9178 5.2741 10.9037C4.5616 10.8884 3.1866 10.5 2.16473 10.1681C0.914727 9.7609 -0.0821487 9.54559 0.00535129 8.85403C0.0491013 8.49403 0.545976 8.12559 1.49285 7.74903Z" fill="white"/>
</svg>
