<svg width="40" height="40" viewBox="0 0 40 40" fill="none" xmlns="http://www.w3.org/2000/svg">
<path d="M15.815 0.005L17.03 0H22.97L24.1867 0.005L25.71 0.0216667L26.4317 0.0333333L27.1283 0.0516667L27.8 0.075L28.4467 0.101667L29.07 0.136667L29.67 0.178333L30.245 0.228333L30.8 0.283333C33.7 0.61 35.6883 1.31 37.1883 2.81C38.6883 4.31 39.3883 6.29667 39.715 9.19833L39.7717 9.75333L39.82 10.33L39.8617 10.93L39.895 11.5517L39.9367 12.5317L39.9567 13.215L39.9783 14.2883L39.9933 15.8133L40 17.4467L39.9983 22.9683L39.9933 24.185L39.9767 25.7083L39.965 26.43L39.9467 27.1267L39.9233 27.7983L39.8967 28.445L39.8617 29.0683L39.82 29.6683L39.77 30.2433L39.715 30.7983C39.3883 33.6983 38.6883 35.6867 37.1883 37.1867C35.6883 38.6867 33.7017 39.3867 30.8 39.7133L30.245 39.77L29.6683 39.8183L29.0683 39.86L28.4467 39.8933L27.4667 39.935L26.7833 39.955L25.71 39.9767L24.185 39.9917L22.5517 39.9983L17.03 39.9967L15.8133 39.9917L14.29 39.975L13.5683 39.9633L12.8717 39.945L12.2 39.9217L11.5533 39.895L10.93 39.86L10.33 39.8183L9.755 39.7683L9.2 39.7133C6.3 39.3867 4.31167 38.6867 2.81167 37.1867C1.31167 35.6867 0.611667 33.7 0.285 30.7983L0.228333 30.2433L0.18 29.6667L0.138333 29.0667L0.105 28.445L0.0633333 27.465L0.0433333 26.7817L0.0216667 25.7083L0.00666667 24.1833L0 22.55L0.00166667 17.0283L0.00666667 15.8117L0.0233333 14.2883L0.035 13.5667L0.0533333 12.87L0.0766667 12.1983L0.103333 11.5517L0.138333 10.9283L0.18 10.3283L0.23 9.75333L0.285 9.19833C0.611667 6.29833 1.31167 4.31 2.81167 2.81C4.31167 1.31 6.29833 0.61 9.2 0.283333L9.755 0.226667L10.3317 0.178333L10.9317 0.136667L11.5533 0.103333L12.5333 0.0616667L13.2167 0.0416667L14.29 0.02L15.815 0.005ZM11.3167 12.165H6.75C6.96667 22.565 12.1667 28.815 21.2833 28.815H21.8V22.865C25.15 23.1983 27.6833 25.6483 28.7 28.815H33.4333C32.1333 24.0817 28.7167 21.465 26.5833 20.465C28.7167 19.2317 31.7167 16.2317 32.4333 12.165H28.1333C27.2 15.465 24.4333 18.465 21.8 18.7483V12.165H17.5V23.6983C14.8333 23.0317 11.4667 19.7983 11.3167 12.165Z" fill="white"/>
</svg>
