<svg width="34" height="24" viewBox="0 0 34 24" fill="none" xmlns="http://www.w3.org/2000/svg">
<path d="M13.3333 16.6667L21.9833 11.6667L13.3333 6.66667V16.6667ZM32.6 3.61667C32.8167 4.4 32.9667 5.45 33.0667 6.78333C33.1833 8.11667 33.2333 9.26667 33.2333 10.2667L33.3333 11.6667C33.3333 15.3167 33.0667 18 32.6 19.7167C32.1833 21.2167 31.2167 22.1833 29.7167 22.6C28.9333 22.8167 27.5 22.9667 25.3 23.0667C23.1333 23.1833 21.15 23.2333 19.3167 23.2333L16.6667 23.3333C9.68333 23.3333 5.33333 23.0667 3.61667 22.6C2.11667 22.1833 1.15 21.2167 0.733333 19.7167C0.516667 18.9333 0.366667 17.8833 0.266667 16.55C0.15 15.2167 0.0999999 14.0667 0.0999999 13.0667L0 11.6667C0 8.01667 0.266667 5.33333 0.733333 3.61667C1.15 2.11667 2.11667 1.15 3.61667 0.733333C4.4 0.516667 5.83333 0.366666 8.03333 0.266666C10.2 0.15 12.1833 0.0999999 14.0167 0.0999999L16.6667 0C23.65 0 28 0.266667 29.7167 0.733333C31.2167 1.15 32.1833 2.11667 32.6 3.61667Z" fill="black" fill-opacity="0.6"/>
</svg>
